<svg width="514" height="479" viewbox = "0 0 514 479"  xmlns="http://www.w3.org/2000/svg">

<!--
<json>
{
    "svgwidth": 514,
    "svgheight": 479,
    "unit": 180,
    "x0": 596,
    "y0": 399,
    "x0rel": -88,
    "y0rel": 0,
    "glyph": "0336,0236,",
    "table": [
        "0220:0336,0332,0234,0335,0335,0331,0331,0336,0332,0332,0333,0337,0334,0227,0333,0333,0336,0333,0337,0227,0321,0362,0203,0203,0334,0203,0203,0203,0203,0203,0334,0203,0203,0203,0334,0203,0203,0203,0203,0203,0334,0203,0354,0320,0336,0330,0334,0330,0330,0330,0330,0330,0337,0337,",
        "0221:0321,0336,0201,0336,0336,0334,0320,0306,0362,0203,0335,0335,0337,0203,0335,0335,0203,0335,0335,0336,0203,0363,0304,0335,0337,0337,0331,0337,",
        "0222:0336,0336,0333,0337,0337,0221,0336,0336,0332,0335,0335,0331,0337,0331,0337,0221,0335,0335,0331,0336,0336,0330,0337,0337,",
        "0223:0304,0313,0334,0336,0336,0336,0362,0203,0335,0337,0337,0203,0336,0334,0336,0203,0335,0310,0350,0335,0337,0203,0203,0335,0335,0203,0203,0335,0335,0335,0336,0203,0313,0304,0334,0337,0337,0203,0336,0335,0336,0203,0363,0335,0337,0337,0337,0330,",
        "0224:0321,0341,0320,0347,0323,0336,0333,0347,0332,0332,0335,0335,0332,0337,0362,0345,0363,0320,0336,0333,0347,0334,0335,0335,0335,0333,0333,0336,0336,0347,0337,0337,0332,0323,0336,0332,0332,0336,0347,0337,0337,0333,0337,0321,0341,",
        "0225:0313,0304,0320,0350,0310,0335,0337,0362,0203,0334,0334,0334,0336,0203,0334,0334,0203,0363,0334,0334,0324,0362,0203,0334,0337,0203,0334,0334,0334,0336,0203,0334,0337,0203,0363,0335,0336,0331,0335,0335,0335,0320,0337,0362,0203,0335,0335,0335,0336,0203,0335,0335,0203,0363,0331,0335,0335,0304,0313,",
        "0226:0225,0225,0225,",
        "0227:0304,0313,0362,0203,0335,0350,0335,0310,0336,0203,0335,0335,0203,0363,0335,0335,0335,0337,0304,0313,0333,",
        "0230:0336,0336,0224,0330,0332,0332,0336,0330,0337,0225,0225,0331,0331,0331,0331,0332,0332,0332,0332,0225,0225,0330,0332,0332,0330,0332,0332,0227,0333,0333,0333,0336,0332,0337,0227,0331,0331,0336,0331,0337,0321,0362,0203,0203,0203,0203,0203,0203,0334,0203,0203,0203,0203,0203,0334,0203,0203,0203,0203,0203,0203,0334,0203,0203,0203,0203,0203,0354,",
        "0231:0221,0336,0336,0333,0337,0337,0221,",
        "0232:0221,0336,0333,0337,0335,0335,0331,0336,0336,0333,0330,0337,0337,0221,0335,0336,0335,0331,0337,0336,0331,0336,0330,0332,0332,0337,0337,0336,0336,0333,0337,0337,",
        "0233:0335,0335,0331,0336,0336,0330,0337,0337,0221,0335,0335,0331,0336,0330,0336,0331,0333,0337,0337,0221,0336,0336,0332,0337,0337,",
        "0234:0336,0336,0336,0336,0331,0337,0337,0330,0337,0333,0337,0231,0333,0331,0335,0335,0336,0333,0336,0332,0332,0331,0331,0333,0331,0337,0337,0231,0336,0336,0330,0330,0330,0337,0337,0335,0335,0330,0232,0331,0331,0332,0332,0336,0336,0330,0330,0330,0333,0333,0330,0333,0333,0333,0337,0337,0233,0336,0333,0321,0336,0331,0333,0333,0333,0333,0336,0336,0330,0337,0337,0337,0337,0337,0200,0336,0330,0334,0337,0342,0335,0336,0332,0342,0335,0335,0342,0335,0335,0333,0332,0332,0320,",
        "0235:0330,0332,0234,0331,0336,0331,0332,0332,0225,0225,0225,0225,0330,0330,0332,0336,0336,0332,0337,0337,0337,0227,0332,0332,0332,0332,0336,0336,0337,0337,0227,0331,0321,0332,0332,0336,0333,0336,0333,0336,0332,0337,0337,0337,0362,0203,0203,0336,0203,0336,0203,0335,0337,0337,0203,0203,0203,0203,0335,0203,0203,0336,0203,0336,0203,0335,0337,0337,0203,0203,0203,0203,0354,",
        "0236:0234,0330,0330,0335,0335,0332,0223,0330,0330,0330,0335,0335,0223,0330,0330,0335,0331,0331,0333,0223,0330,0330,0330,0335,0335,0223,0320,0331,0331,0335,0331,0331,0336,0332,0321,0362,0203,0203,0203,0203,0203,0203,0203,0203,0203,0334,0203,0203,0203,0203,0203,0203,0203,0203,0203,0203,0334,0203,0203,0203,0203,0203,0203,0203,0203,0203,0203,0334,0203,0203,0203,0203,0203,0203,0203,0203,0203,0203,0334,0203,0354,0330,0330,0330,0330,0336,0332,0336,0347,0337,0337,0330,0330,0330,0330,0330,0332,0332,0332,0332,0332,0336,0333,0331,0336,0347,0337,0337,0332,0331,0331,0331,0331,0332,0332,0332,0336,0332,0331,0336,0347,0337,0337,0333,0333,0333,0331,0331,0333,0333,0331,0331,0336,0331,0332,0336,0347,0337,0337,0337,0330,",
        "0237:0336,0332,0337,0335,0223,0334,0336,0333,0336,0333,0337,0337,0220,0332,0332,0332,0336,0234,0332,0336,0333,0337,0337,0321,0362,0203,0336,0203,0335,0203,0203,0203,0203,0203,0203,0203,0203,0336,0203,0335,0337,0203,0203,0203,0203,0203,0203,0335,0203,0203,0203,0203,0203,0203,0203,0203,0336,0203,0335,0337,0203,0203,0336,0203,0203,0354,",
        "0240:0331,0321,0334,0336,0362,0203,0335,0337,0203,0203,0334,0336,0203,0335,0350,0310,0335,0337,0203,0203,0335,0335,0203,0203,0335,0335,0335,0336,0203,0313,0304,0334,0203,0203,0203,0203,0335,0203,0354,0335,0337,0330,0320,",
        "0241:0306,0362,0203,0335,0335,0203,0335,0335,0203,0363,0335,0335,0304,",
        "0242:0241,0333,0336,0333,0337,0241,0336,0333,0337,0333,0241,0333,0336,0333,0337,",
        "0243:0313,0304,0320,0350,0310,0335,0337,0362,0203,0335,0336,0203,0335,0335,0335,0337,0203,0335,0336,0203,0363,0335,0335,0324,0362,0203,0335,0335,0203,0335,0335,0335,0337,0203,0363,0335,0336,0331,0335,0335,0335,0337,0362,0203,0335,0335,0335,0336,0203,0335,0335,0203,0363,0320,0331,0335,0335,0304,0313,",
        "0244:0243,0243,0243,0243,",
        "0245:0321,0337,0201,0320,0336,0334,0336,0336,0306,0336,0362,0203,0335,0335,0337,0203,0335,0335,0203,0335,0335,0336,0203,0363,0304,0335,0337,0337,0337,0337,0331,0336,",
        "0246:0320,0335,0306,0350,0334,0330,0321,0337,0366,0336,0331,0335,0335,0330,0337,0336,0336,0336,0336,0336,0330,0337,0337,0337,0337,0337,0367,0336,0336,0336,0336,0336,0331,0335,0337,0320,0337,0362,0203,0334,0334,0334,0334,0203,0334,0334,0334,0334,0203,0363,0335,0337,0337,0330,0335,0335,0304,",
        "0247:0336,0336,0336,0347,0337,0337,0337,",
        "0250:0335,0337,0331,0337,0223,",
        "01220:0333,0200,0336,0332,0330,0220,0331,",
        "01221:0333,0200,0336,0332,0336,0330,0337,0220,0221,0333,0331,0331,0336,0330,0337,0337,0336,0330,0337,",
        "01222:0333,0200,0336,0332,0337,0222,0336,0333,0337,0331,0330,0335,0335,0331,0336,0333,0330,0335,0335,0331,0333,0337,",
        "01223:0333,0200,0336,0332,0337,0223,0336,0333,0337,0331,",
        "01224:0333,0200,0336,0330,0332,0224,0333,0331,0337,0320,",
        "01225:0333,0200,0336,0332,0336,0332,0332,0337,0225,0336,0337,0337,",
        "01226:0333,0200,0336,0330,0332,0332,0336,0330,0336,0226,0330,0333,0333,0330,0337,0337,0337,0331,",
        "01227:0333,0200,0336,0330,0332,0210,0227,0211,0331,0333,0337,0336,0332,0337,0336,0336,0336,0336,0333,0337,0337,0337,0337,",
        "01230:0333,0200,0336,0330,0332,0230,0336,0336,0333,0320,0336,0331,0331,0333,0333,0331,0333,0331,0333,0331,0333,0331,0333,0331,0331,0337,0337,0337,0337,0330,0336,0336,0330,0334,0337,0337,0337,0337,",
        "01231:0333,0200,0332,0336,0330,0333,0231,0333,0331,0337,0336,0336,0336,0332,0337,0337,0337,",
        "01232:0333,0200,0336,0332,0330,0332,0232,0333,0331,0333,0337,",
        "01233:0333,0200,0336,0332,0337,0336,0332,0336,0336,0333,0330,0337,0337,0210,0210,0233,0211,0211,0313,0336,0336,0332,0332,0333,0331,0337,0337,0337,0333,",
        "01234:0333,0200,0336,0330,0332,0332,0234,0337,0333,0336,0331,0337,",
        "01235:0333,0200,0336,0332,0336,0330,0332,0235,0333,0333,0333,0336,0336,0331,0331,0331,0331,0337,0337,0337,0337,",
        "01236:0333,0200,0336,0330,0330,0332,0336,0331,0337,0236,0333,0331,0331,0336,0330,0337,0337,",
        "01237:0333,0200,0336,0330,0332,0237,0333,0331,0337,",
        "01240:0333,0200,0336,0336,0332,0332,0240,0333,0333,0337,0337,",
        "01241:0333,0200,0336,0332,0241,0333,0337,",
        "01242:0333,0200,0336,0332,0332,0336,0330,0330,0242,0336,0331,0331,0331,0331,0332,0337,0337,0337,",
        "01243:0333,0200,0336,0332,0332,0243,0337,",
        "01244:0333,0200,0332,0336,0330,0336,0336,0243,0243,0243,0243,0331,0331,0331,0331,0337,0337,0337,",
        "01245:0333,0200,0336,0332,0336,0331,0337,0245,0333,0336,0330,0337,0337,",
        "01246:0333,0200,0330,0332,0336,0331,0336,0332,0337,0246,0333,0333,0336,0333,0331,0331,0337,0337,",
        "01247:0333,0200,0336,0330,0332,0337,0247,0336,0333,0331,0337,"
    ]
}
</json>
-->
    <line x1="214" y1="223" x2="214" y2="178" style="stroke:black;stroke-width:6" />
	<path d = "M214 178 L203 178 L214 158 L225 178 L214 178 Z" stroke = "black" stroke-width = "1" fill = "black" />    <line x1="237" y1="223" x2="237" y2="178" style="stroke:black;stroke-width:6" />
	<path d = "M237 178 L225 178 L236 158 L248 178 L237 178 Z" stroke = "black" stroke-width = "1" fill = "black" />    <line x1="304" y1="245" x2="304" y2="290" style="stroke:black;stroke-width:6" />
	<path d = "M304 290 L315 290 L304 310 L293 290 L304 290 Z" stroke = "black" stroke-width = "1" fill = "black" />    <line x1="281" y1="245" x2="282" y2="290" style="stroke:black;stroke-width:6" />
	<path d = "M282 290 L293 290 L282 310 L270 290 L282 290 Z" stroke = "black" stroke-width = "1" fill = "black" />    <line x1="281" y1="223" x2="281" y2="178" style="stroke:black;stroke-width:6" />
	<path d = "M281 178 L270 178 L281 158 L293 178 L281 178 Z" stroke = "black" stroke-width = "1" fill = "black" />    <line x1="304" y1="155" x2="304" y2="200" style="stroke:black;stroke-width:6" />
	<path d = "M304 200 L315 200 L304 220 L293 200 L304 200 Z" stroke = "black" stroke-width = "1" fill = "black" />    <line x1="214" y1="245" x2="214" y2="290" style="stroke:black;stroke-width:6" />
	<path d = "M214 290 L225 290 L214 310 L203 290 L214 290 Z" stroke = "black" stroke-width = "1" fill = "black" />    <line x1="237" y1="313" x2="237" y2="268" style="stroke:black;stroke-width:6" />
	<path d = "M237 268 L225 268 L237 248 L248 268 L237 268 Z" stroke = "black" stroke-width = "1" fill = "black" />	<path d = "M349 329 L349 149 L169 150 L169 330 L349 329 Z" stroke = "black" stroke-width = "6" fill = "none" />    <line x1="349" y1="239" x2="169" y2="240" style="stroke:black;stroke-width:6" />
    <line x1="259" y1="240" x2="259" y2="150" style="stroke:black;stroke-width:6" />
    <line x1="259" y1="240" x2="259" y2="330" style="stroke:black;stroke-width:6" />
	<path d = "M259 59 L270 59 L270 104 L281 104 L270 116 L259 127 L248 116 L236 104 L248 104 L248 59 L259 59 Z" stroke = "black" stroke-width = "1" fill = "black" />	<path d = "M259 419 L248 419 L248 374 L237 374 L248 363 L259 352 L270 363 L282 374 L270 374 L270 419 L259 419 Z" stroke = "black" stroke-width = "1" fill = "black" />	<path d = "M79 240 L79 228 L124 228 L124 217 L135 228 L146 240 L135 251 L124 262 L124 251 L79 251 L79 240 Z" stroke = "black" stroke-width = "1" fill = "black" />	<path d = "M439 239 L439 251 L394 251 L394 262 L383 251 L371 239 L383 228 L394 217 L394 228 L439 228 L439 239 Z" stroke = "black" stroke-width = "1" fill = "black" />	<path d = "M484 419 L484 374 L484 329 L484 284 L484 239 L484 194 L484 149 L484 104 L484 59 L484 14 L439 14 L394 14 L349 14 L304 14 L259 15 L214 15 L169 15 L124 15 L79 15 L34 15 L34 60 L34 105 L34 150 L34 195 L34 240 L34 285 L34 330 L34 375 L34 420 L34 465 L79 465 L124 465 L169 465 L214 465 L259 465 L304 464 L349 464 L394 464 L439 464 L484 464 L484 419 Z" stroke = "black" stroke-width = "6" fill = "none" />    <circle cx="461" cy = "239" r = "11.25" stroke = "black" stroke-width = "6" fill = "black" />
    <circle cx="259" cy = "37" r = "11.25" stroke = "black" stroke-width = "6" fill = "black" />
    <circle cx="56" cy = "240" r = "11.25" stroke = "black" stroke-width = "6" fill = "black" />
    <circle cx="259" cy = "442" r = "11.25" stroke = "black" stroke-width = "6" fill = "black" />
</svg>