<svg width="400" height="421" viewbox="0 0 400 421" xmlns="http://www.w3.org/2000/svg">

<!--
<json>
{
    "svgwidth": 400,
    "svgheight": 421,
    "unit": 156.92141883605018,
    "x0": 744.319935,
    "y0": 508.8749454545455,
    "x0rel": 60.31993499999999,
    "y0rel": 109.87494545454553,
    "glyph": "0336,0336,0336,0336,0330,0330,0330,0330,0330,0330,0330,0330,0330,0330,0330,0332,0332,0332,0332,0332,0337,0337,0337,0224,",
    "table": [
        "0220:0321,0341,0320,0347,0323,0336,0333,0347,0332,0332,0335,0335,0332,0337,0362,0345,0363,0320,0336,0333,0347,0334,0335,0335,0335,0333,0333,0336,0336,0347,0337,0337,0332,0323,0336,0332,0332,0336,0347,0337,0337,0333,0337,0321,0341,",
        "0221:0304,0334,0336,0310,0350,0362,0203,0335,0335,0335,0337,0203,0335,0335,0203,0335,0335,0335,0336,0203,0363,0335,0335,0304,0337,0337,0313,0330,",
        "0222:0220,0330,0335,0335,0331,0221,0330,0330,0336,0330,0337,0221,0335,0335,0333,0333,0321,0362,0203,0203,0203,0203,0203,0334,0203,0203,0203,0203,0334,0203,0203,0203,0203,0203,0334,0203,0203,0203,0203,0354,",
        "0223:0336,0336,0304,0336,0334,0310,0350,0362,0203,0335,0335,0203,0203,0334,0334,0203,0335,0335,0335,0337,0203,0203,0335,0335,0203,0203,0335,0335,0335,0336,0203,0334,0334,0203,0203,0335,0335,0203,0363,0335,0335,0304,0313,0337,0337,0337,",
        "0224:0333,0336,0222,0332,0332,0331,0331,0331,0331,0331,0332,0336,0333,0331,0337,0337,0223,0334,0332,0336,0220,0332,0336,0332,0336,0333,0337,0337,0337,0362,0203,0203,0335,0203,0203,0203,0203,0336,0203,0335,0203,0203,0203,0203,0203,0203,0203,0203,0335,0203,0203,0203,0203,0203,0203,0203,0203,0203,0335,0203,0203,0203,0203,0354,",
        "0241:0306,0362,0203,0335,0335,0203,0335,0335,0203,0363,0335,0335,0304,0313,",
        "0242:0241,0333,0336,0333,0337,0241,0336,0333,0337,0333,0241,0333,0336,0333,0337,",
        "0243:0313,0304,0320,0350,0310,0335,0337,0362,0203,0335,0336,0203,0335,0335,0335,0337,0203,0335,0336,0203,0363,0335,0335,0324,0362,0203,0335,0335,0203,0335,0335,0335,0337,0203,0363,0335,0336,0331,0335,0335,0335,0337,0362,0203,0335,0335,0335,0336,0203,0335,0335,0203,0363,0320,0331,0335,0335,0304,0313,",
        "0244:0243,0243,0243,0243,",
        "0245:0321,0337,0201,0320,0336,0334,0336,0336,0306,0336,0362,0203,0335,0335,0337,0203,0335,0335,0203,0335,0335,0336,0203,0363,0304,0335,0337,0337,0337,0337,0331,0336,",
        "0246:0320,0335,0306,0350,0334,0330,0321,0337,0366,0336,0331,0335,0335,0330,0337,0336,0336,0336,0336,0336,0330,0337,0337,0337,0337,0337,0367,0336,0336,0336,0336,0336,0331,0335,0337,0320,0337,0362,0203,0334,0334,0334,0334,0203,0334,0334,0334,0334,0203,0363,0335,0337,0337,0330,0335,0335,0304,",
        "0247:0336,0336,0336,0347,0337,0337,0337,",
        "0250:0335,0337,0331,0337,0223,",
        "01220:0220,0333,",
        "01221:0221,0333,0200,",
        "01222:0222,0333,0200,",
        "01223:0336,0333,0337,0223,0336,0333,0337,0200,",
        "01224:0224,0333,0200,0320,",
        "01225:0225,0333,0200,",
        "01226:0333,0200,0336,0330,0332,0226,0333,0331,0337,",
        "01227:0333,0200,0336,0330,0332,0210,0227,0211,0331,0333,0337,",
        "01230:0333,0200,0336,0330,0332,0230,0331,0304,0333,0337,",
        "01231:0333,0200,0332,0336,0330,0333,0231,0333,0331,0337,",
        "01232:0333,0200,0336,0332,0330,0332,0232,0333,0331,0333,0337,",
        "01233:0333,0200,0336,0332,0337,0336,0332,0336,0336,0333,0330,0337,0337,0210,0210,0233,0211,0211,0313,0336,0336,0332,0332,0333,0331,0337,0337,0337,0333,",
        "01234:0333,0200,0336,0234,0337,",
        "01235:0333,0200,0336,0332,0336,0330,0332,0235,0333,0333,0333,0336,0336,0331,0331,0331,0331,0337,0337,0337,0337,",
        "01236:0333,0200,0336,0330,0330,0332,0336,0331,0337,0236,0333,0331,0331,0336,0330,0337,0337,",
        "01237:0333,0200,0336,0330,0332,0237,0333,0331,0337,",
        "01240:0333,0200,0336,0336,0332,0332,0240,0333,0333,0337,0337,",
        "01241:0333,0200,0336,0332,0241,0333,0337,",
        "01242:0333,0200,0336,0332,0332,0336,0330,0330,0242,0336,0331,0331,0331,0331,0332,0337,0337,0337,",
        "01243:0333,0200,0336,0332,0332,0243,0337,",
        "01244:0333,0200,0332,0336,0330,0336,0336,0243,0243,0243,0243,0331,0331,0331,0331,0337,0337,0337,",
        "01245:0333,0200,0336,0332,0336,0331,0337,0245,0333,0336,0330,0337,0337,",
        "01246:0333,0200,0330,0332,0336,0331,0336,0332,0337,0246,0333,0333,0336,0333,0331,0331,0337,0337,",
        "01247:0333,0200,0336,0330,0332,0337,0247,0336,0333,0331,0337,"
    ]
}
</json>
-->
    <circle cx="290" cy="212" r="39.230354709012545" stroke="black" stroke-width="4" fill="none"/>
    <circle cx="290" cy="212" r="39.230354709012545" stroke="black" stroke-width="1" fill="black"/>
    <circle cx="309" cy="212" r="19.615177354506272" stroke="white" stroke-width="1" fill="white"/>
	<path d="M290 212 M328.97305574077194 212.49147000476103           A39.230354709012545 39.230354709012545 0 0 1 250.51234632274685 212.49147000476103Z" stroke="white" stroke-width="1" fill="white"/>    <circle cx="270" cy="212" r="19.615177354506272" stroke="black" stroke-width="1" fill="black"/>
    <circle cx="309" cy="212" r="4.903794338626568" stroke="black" stroke-width="1" fill="black"/>
    <circle cx="270" cy="212" r="4.903794338626568" stroke="white" stroke-width="1" fill="white"/>
    <circle cx="290" cy="212" r="39.230354709012545" stroke="black" stroke-width="4" fill="none"/>
	<path d="M290 134 L309 134 L290 154 L270 134 L290 134 Z" stroke="black" stroke-width="4" fill="black"/>	<path d="M290 271 L309 271 L290 291 L270 271 L290 271 Z" stroke="black" stroke-width="4" fill="black"/>	<path d="M368 311 L368 271 L368 232 L368 193 L368 154 L368 114 L329 114 L290 114 L251 114 L211 114 L211 154 L211 193 L211 232 L211 271 L211 311 L251 311 L290 311 L329 311 L368 311 Z" stroke="black" stroke-width="4" fill="none"/>	<path d="M152 212 L152 203 L162 203 L172 203 L172 193 L182 203 L192 212 L182 222 L172 232 L172 222 L162 222 L152 222 L152 212 Z" stroke="black" stroke-width="4" fill="black"/>    <circle cx="74" cy="212" r="39.23035470901256" stroke="black" stroke-width="4" fill="none"/>
    <circle cx="74" cy="212" r="39.23035470901256" stroke="black" stroke-width="1" fill="black"/>
    <circle cx="94" cy="212" r="19.61517735450628" stroke="white" stroke-width="1" fill="white"/>
	<path d="M74 212 M113.20610484120299 212.49147000475992           A39.23035470901256 39.23035470901256 0 0 1 34.74539542317787 212.49147000475875Z" stroke="white" stroke-width="1" fill="white"/>    <circle cx="54" cy="212" r="19.61517735450628" stroke="black" stroke-width="1" fill="black"/>
    <circle cx="94" cy="212" r="4.90379433862657" stroke="black" stroke-width="1" fill="black"/>
    <circle cx="54" cy="212" r="4.90379433862657" stroke="white" stroke-width="1" fill="white"/>
    <circle cx="74" cy="212" r="39.23035470901256" stroke="black" stroke-width="4" fill="none"/>
	<path d="M25 212 L25 134 L25 56 L103 56 L182 56 L260 56 L339 56 L378 56 L378 95 L378 134 L378 173 L378 212 L378 252 L378 291 L378 330 L378 369 L339 369 L300 369 L260 369 L221 369 L182 369 L143 369 L103 369 L64 369 L25 369 L25 330 L25 291 L25 252 L25 212 Z" stroke="black" stroke-width="4" fill="none"/></svg>