<svg width="514" height="377" viewbox = "0 0 514 377"  xmlns="http://www.w3.org/2000/svg">

<!--
<json>
{
    "svgwidth": 514,
    "svgheight": 377,
    "unit": 172,
    "x0": 668,
    "y0": 405,
    "x0rel": -16,
    "y0rel": 6,
    "glyph": "0336,0336,0337,0211,0211,0237,",
    "table": [
        "0220:0336,0332,0234,0335,0335,0331,0331,0336,0332,0332,0333,0337,0334,0227,0333,0333,0336,0333,0337,0227,0321,0362,0203,0203,0334,0203,0203,0203,0203,0203,0334,0203,0203,0203,0334,0203,0203,0203,0203,0203,0334,0203,0354,0320,0336,0330,0334,0330,0330,0330,0330,0330,0337,0337,",
        "0221:0321,0336,0201,0336,0336,0334,0320,0306,0362,0203,0335,0335,0337,0203,0335,0335,0203,0335,0335,0336,0203,0363,0304,0335,0337,0337,0331,0337,",
        "0222:0336,0336,0333,0337,0337,0221,0336,0336,0332,0335,0335,0331,0337,0331,0337,0221,0335,0335,0331,0336,0336,0330,0337,0337,",
        "0223:0304,0313,0334,0336,0336,0336,0362,0203,0335,0337,0337,0203,0336,0334,0336,0203,0335,0310,0350,0335,0337,0203,0203,0335,0335,0203,0203,0335,0335,0335,0336,0203,0313,0304,0334,0337,0337,0203,0336,0335,0336,0203,0363,0335,0337,0337,0337,0330,",
        "0224:0321,0341,0320,0347,0323,0336,0333,0347,0332,0332,0335,0335,0332,0337,0362,0345,0363,0320,0336,0333,0347,0334,0335,0335,0335,0333,0333,0336,0336,0347,0337,0337,0332,0323,0336,0332,0332,0336,0347,0337,0337,0333,0337,0321,0341,",
        "0225:0313,0304,0320,0350,0310,0335,0337,0362,0203,0334,0334,0334,0336,0203,0334,0334,0203,0363,0334,0334,0324,0362,0203,0334,0337,0203,0334,0334,0334,0336,0203,0334,0337,0203,0363,0335,0336,0331,0335,0335,0335,0320,0337,0362,0203,0335,0335,0335,0336,0203,0335,0335,0203,0363,0331,0335,0335,0304,0313,",
        "0226:0225,0225,0225,",
        "0227:0304,0313,0362,0203,0335,0350,0335,0310,0336,0203,0335,0335,0203,0363,0335,0335,0335,0337,0304,0313,0333,",
        "0230:0336,0336,0224,0330,0332,0332,0336,0330,0337,0225,0225,0331,0331,0331,0331,0332,0332,0332,0332,0225,0225,0330,0332,0332,0330,0332,0332,0227,0333,0333,0333,0336,0332,0337,0227,0331,0331,0336,0331,0337,0321,0362,0203,0203,0203,0203,0203,0203,0334,0203,0203,0203,0203,0203,0334,0203,0203,0203,0203,0203,0203,0334,0203,0203,0203,0203,0203,0354,",
        "0231:0221,0336,0336,0333,0337,0337,0221,",
        "0232:0221,0336,0333,0337,0335,0335,0331,0336,0336,0333,0330,0337,0337,0221,0335,0336,0335,0331,0337,0336,0331,0336,0330,0332,0332,0337,0337,0336,0336,0333,0337,0337,",
        "0233:0335,0335,0331,0336,0336,0330,0337,0337,0221,0335,0335,0331,0336,0330,0336,0331,0333,0337,0337,0221,0336,0336,0332,0337,0337,",
        "0234:0336,0336,0336,0336,0331,0337,0337,0330,0337,0333,0337,0231,0333,0331,0335,0335,0336,0333,0336,0332,0332,0331,0331,0333,0331,0337,0337,0231,0336,0336,0330,0330,0330,0337,0337,0335,0335,0330,0232,0331,0331,0332,0332,0336,0336,0330,0330,0330,0333,0333,0330,0333,0333,0333,0337,0337,0233,0336,0333,0321,0336,0331,0333,0333,0333,0333,0336,0336,0330,0337,0337,0337,0337,0337,0200,0336,0330,0334,0337,0342,0335,0336,0332,0342,0335,0335,0342,0335,0335,0333,0332,0332,0320,",
        "0235:0330,0332,0234,0331,0336,0331,0332,0332,0225,0225,0225,0225,0330,0330,0332,0336,0336,0332,0337,0337,0337,0227,0332,0332,0332,0332,0336,0336,0337,0337,0227,0331,0321,0332,0332,0336,0333,0336,0333,0336,0332,0337,0337,0337,0362,0203,0203,0336,0203,0336,0203,0335,0337,0337,0203,0203,0203,0203,0335,0203,0203,0336,0203,0336,0203,0335,0337,0337,0203,0203,0203,0203,0354,",
        "0236:0234,0330,0330,0335,0335,0332,0223,0330,0330,0330,0335,0335,0223,0330,0330,0335,0331,0331,0333,0223,0330,0330,0330,0335,0335,0223,0320,0331,0331,0335,0331,0331,0336,0332,0321,0362,0203,0203,0203,0203,0203,0203,0203,0203,0203,0334,0203,0203,0203,0203,0203,0203,0203,0203,0203,0203,0334,0203,0203,0203,0203,0203,0203,0203,0203,0203,0203,0334,0203,0203,0203,0203,0203,0203,0203,0203,0203,0203,0334,0203,0354,",
        "0237:0336,0332,0337,0335,0223,0334,0336,0333,0336,0333,0337,0337,0220,0332,0332,0332,0336,0234,0332,0336,0333,0337,0337,0321,0362,0203,0336,0203,0335,0203,0203,0203,0203,0203,0203,0203,0203,0336,0203,0335,0337,0203,0203,0203,0203,0203,0203,0335,0203,0203,0203,0203,0203,0203,0203,0203,0336,0203,0335,0337,0203,0203,0336,0203,0203,0354,",
        "0240:0331,0321,0334,0336,0362,0203,0335,0337,0203,0203,0334,0336,0203,0335,0350,0310,0335,0337,0203,0203,0335,0335,0203,0203,0335,0335,0335,0336,0203,0313,0304,0334,0203,0203,0203,0203,0335,0203,0354,0335,0337,0330,0320,",
        "0241:0306,0362,0203,0335,0335,0203,0335,0335,0203,0363,0335,0335,0304,",
        "0242:0241,0333,0336,0333,0337,0241,0336,0333,0337,0333,0241,0333,0336,0333,0337,",
        "0243:0313,0304,0320,0350,0310,0335,0337,0362,0203,0335,0336,0203,0335,0335,0335,0337,0203,0335,0336,0203,0363,0335,0335,0324,0362,0203,0335,0335,0203,0335,0335,0335,0337,0203,0363,0335,0336,0331,0335,0335,0335,0337,0362,0203,0335,0335,0335,0336,0203,0335,0335,0203,0363,0320,0331,0335,0335,0304,0313,",
        "0244:0243,0243,0243,0243,",
        "0245:0321,0337,0201,0320,0336,0334,0336,0336,0306,0336,0362,0203,0335,0335,0337,0203,0335,0335,0203,0335,0335,0336,0203,0363,0304,0335,0337,0337,0337,0337,0331,0336,",
        "0246:0320,0335,0306,0350,0334,0330,0321,0337,0366,0336,0331,0335,0335,0330,0337,0336,0336,0336,0336,0336,0330,0337,0337,0337,0337,0337,0367,0336,0336,0336,0336,0336,0331,0335,0337,0320,0337,0362,0203,0334,0334,0334,0334,0203,0334,0334,0334,0334,0203,0363,0335,0337,0337,0330,0335,0335,0304,",
        "0247:0336,0336,0336,0347,0337,0337,0337,",
        "0250:0335,0337,0331,0337,0223,",
        "01220:0333,0200,0336,0332,0330,0220,0331,",
        "01221:0333,0200,0336,0332,0336,0330,0337,0220,0221,0333,0331,0331,0336,0330,0337,0337,0336,0330,0337,",
        "01222:0333,0200,0336,0332,0337,0222,0336,0333,0337,0331,0330,0335,0335,0331,0336,0333,0330,0335,0335,0331,0333,0337,",
        "01223:0333,0200,0336,0332,0337,0223,0336,0333,0337,0331,",
        "01224:0333,0200,0336,0330,0332,0224,0333,0331,0337,0320,",
        "01225:0333,0200,0336,0332,0336,0332,0332,0337,0225,0336,0337,0337,",
        "01226:0333,0200,0336,0330,0332,0332,0336,0330,0336,0226,0330,0333,0333,0330,0337,0337,0337,0331,",
        "01227:0333,0200,0336,0330,0332,0210,0227,0211,0331,0333,0337,0336,0332,0337,0336,0336,0336,0336,0333,0337,0337,0337,0337,",
        "01230:0333,0200,0336,0330,0332,0230,0336,0336,0333,0320,0336,0331,0331,0333,0333,0331,0333,0331,0333,0331,0333,0331,0333,0331,0331,0337,0337,0337,0337,0330,0336,0336,0330,0334,0337,0337,0337,0337,",
        "01231:0333,0200,0332,0336,0330,0333,0231,0333,0331,0337,0336,0336,0336,0332,0337,0337,0337,",
        "01232:0333,0200,0336,0332,0330,0332,0232,0333,0331,0333,0337,",
        "01233:0333,0200,0336,0332,0337,0336,0332,0336,0336,0333,0330,0337,0337,0210,0210,0233,0211,0211,0313,0336,0336,0332,0332,0333,0331,0337,0337,0337,0333,",
        "01234:0333,0200,0336,0330,0332,0332,0234,0337,0333,0336,0331,0337,",
        "01235:0333,0200,0336,0332,0336,0330,0332,0235,0333,0333,0333,0336,0336,0331,0331,0331,0331,0337,0337,0337,0337,",
        "01236:0333,0200,0336,0330,0330,0332,0336,0331,0337,0236,0333,0331,0331,0336,0330,0337,0337,",
        "01237:0333,0200,0336,0330,0332,0237,0333,0331,0337,",
        "01240:0333,0200,0336,0336,0332,0332,0240,0333,0333,0337,0337,",
        "01241:0333,0200,0336,0332,0241,0333,0337,",
        "01242:0333,0200,0336,0332,0332,0336,0330,0330,0242,0336,0331,0331,0331,0331,0332,0337,0337,0337,",
        "01243:0333,0200,0336,0332,0332,0243,0337,",
        "01244:0333,0200,0332,0336,0330,0336,0336,0243,0243,0243,0243,0331,0331,0331,0331,0337,0337,0337,",
        "01245:0333,0200,0336,0332,0336,0331,0337,0245,0333,0336,0330,0337,0337,",
        "01246:0333,0200,0330,0332,0336,0331,0336,0332,0337,0246,0333,0333,0336,0333,0331,0331,0337,0337,",
        "01247:0333,0200,0336,0330,0332,0337,0247,0336,0333,0331,0337,"
    ]
}
</json>
-->
	<path d = "M185 195 L185 180 L241 180 L241 166 L255 180 L269 195 L255 209 L241 223 L241 209 L185 209 L185 195 Z" stroke = "black" stroke-width = "1" fill = "black" />    <line x1="354" y1="184" x2="354" y2="156" style="stroke:black;stroke-width:6" />
	<path d = "M354 156 L347 156 L354 144 L361 156 L354 156 Z" stroke = "black" stroke-width = "1" fill = "black" />    <line x1="368" y1="184" x2="368" y2="156" style="stroke:black;stroke-width:6" />
	<path d = "M368 156 L361 156 L368 144 L375 156 L368 156 Z" stroke = "black" stroke-width = "1" fill = "black" />    <line x1="410" y1="198" x2="410" y2="226" style="stroke:black;stroke-width:6" />
	<path d = "M410 226 L417 226 L410 238 L403 226 L410 226 Z" stroke = "black" stroke-width = "1" fill = "black" />    <line x1="396" y1="198" x2="396" y2="226" style="stroke:black;stroke-width:6" />
	<path d = "M396 226 L403 226 L396 238 L389 226 L396 226 Z" stroke = "black" stroke-width = "1" fill = "black" />    <line x1="396" y1="184" x2="396" y2="156" style="stroke:black;stroke-width:6" />
	<path d = "M396 156 L389 156 L396 144 L403 156 L396 156 Z" stroke = "black" stroke-width = "1" fill = "black" />    <line x1="410" y1="142" x2="410" y2="170" style="stroke:black;stroke-width:6" />
	<path d = "M410 170 L417 170 L410 182 L403 170 L410 170 Z" stroke = "black" stroke-width = "1" fill = "black" />    <line x1="354" y1="198" x2="354" y2="226" style="stroke:black;stroke-width:6" />
	<path d = "M354 226 L361 226 L354 238 L347 226 L354 226 Z" stroke = "black" stroke-width = "1" fill = "black" />    <line x1="368" y1="240" x2="368" y2="212" style="stroke:black;stroke-width:6" />
	<path d = "M368 212 L361 212 L368 200 L375 212 L368 212 Z" stroke = "black" stroke-width = "1" fill = "black" />	<path d = "M438 251 L438 138 L325 138 L325 251 L438 251 Z" stroke = "black" stroke-width = "6" fill = "none" />    <line x1="438" y1="195" x2="325" y2="194" style="stroke:black;stroke-width:6" />
    <line x1="382" y1="194" x2="382" y2="138" style="stroke:black;stroke-width:6" />
    <line x1="382" y1="194" x2="382" y2="251" style="stroke:black;stroke-width:6" />
	<path d = "M354 82 L410 82 L382 110 L354 82 Z" stroke = "black" stroke-width = "1" fill = "black" />	<path d = "M354 279 L410 279 L382 307 L354 279 Z" stroke = "black" stroke-width = "1" fill = "black" />	<path d = "M354 335 L410 335 L466 335 L466 279 L466 223 L466 166 L466 110 L466 54 L410 54 L354 54 L297 54 L297 110 L297 166 L297 223 L297 279 L297 335 L354 335 Z" stroke = "black" stroke-width = "6" fill = "none" />    <line x1="72" y1="184" x2="72" y2="156" style="stroke:black;stroke-width:6" />
	<path d = "M72 156 L65 156 L72 144 L79 156 L72 156 Z" stroke = "black" stroke-width = "1" fill = "black" />    <line x1="86" y1="184" x2="86" y2="156" style="stroke:black;stroke-width:6" />
	<path d = "M86 156 L79 156 L86 144 L93 156 L86 156 Z" stroke = "black" stroke-width = "1" fill = "black" />    <line x1="128" y1="198" x2="128" y2="226" style="stroke:black;stroke-width:6" />
	<path d = "M128 226 L135 226 L128 238 L121 226 L128 226 Z" stroke = "black" stroke-width = "1" fill = "black" />    <line x1="114" y1="198" x2="114" y2="226" style="stroke:black;stroke-width:6" />
	<path d = "M114 226 L121 226 L114 238 L107 226 L114 226 Z" stroke = "black" stroke-width = "1" fill = "black" />    <line x1="114" y1="184" x2="114" y2="156" style="stroke:black;stroke-width:6" />
	<path d = "M114 156 L107 156 L114 144 L121 156 L114 156 Z" stroke = "black" stroke-width = "1" fill = "black" />    <line x1="128" y1="142" x2="128" y2="170" style="stroke:black;stroke-width:6" />
	<path d = "M128 170 L135 170 L128 182 L121 170 L128 170 Z" stroke = "black" stroke-width = "1" fill = "black" />    <line x1="72" y1="198" x2="72" y2="226" style="stroke:black;stroke-width:6" />
	<path d = "M72 226 L79 226 L72 238 L65 226 L72 226 Z" stroke = "black" stroke-width = "1" fill = "black" />    <line x1="86" y1="240" x2="86" y2="212" style="stroke:black;stroke-width:6" />
	<path d = "M86 212 L79 212 L86 200 L93 212 L86 212 Z" stroke = "black" stroke-width = "1" fill = "black" />	<path d = "M157 251 L157 138 L44 138 L44 251 L157 251 Z" stroke = "black" stroke-width = "6" fill = "none" />    <line x1="157" y1="195" x2="44" y2="194" style="stroke:black;stroke-width:6" />
    <line x1="100" y1="195" x2="100" y2="138" style="stroke:black;stroke-width:6" />
    <line x1="100" y1="195" x2="100" y2="251" style="stroke:black;stroke-width:6" />
	<path d = "M16 194 L16 82 L16 26 L72 26 L128 26 L185 26 L241 26 L297 26 L354 26 L410 26 L466 26 L494 26 L494 82 L494 138 L494 195 L494 251 L494 307 L494 363 L438 363 L382 363 L325 363 L269 363 L213 363 L157 363 L100 363 L44 363 L16 363 L16 307 L16 251 L16 223 L16 194 Z" stroke = "black" stroke-width = "6" fill = "none" /></svg>