<svg width="366" height="265" viewbox = "0 0 366 265"  xmlns="http://www.w3.org/2000/svg">

<!--
<json>
{
    "svgwidth": 366,
    "svgheight": 265,
    "unit": 172,
    "x0": 685,
    "y0": 475,
    "x0rel": 1,
    "y0rel": 76,
    "glyph": "0336,0235,",
    "table": [
        "0221:0321,0336,0201,0336,0336,0334,0320,0306,0362,0203,0335,0335,0337,0203,0335,0335,0203,0335,0335,0336,0203,0363,0304,0335,0337,0337,0331,0337,",
        "0222:0336,0336,0333,0337,0337,0221,0336,0336,0332,0335,0335,0331,0337,0331,0337,0221,0335,0335,0331,0336,0336,0330,0337,0337,",
        "0223:0304,0313,0334,0336,0336,0336,0362,0203,0335,0337,0337,0203,0336,0203,0334,0336,0203,0335,0310,0350,0335,0337,0203,0203,0335,0335,0203,0203,0335,0335,0335,0336,0203,0313,0304,0334,0337,0337,0203,0336,0203,0335,0336,0203,0363,0335,0337,0337,0337,0330,",
        "0224:0321,0341,0320,0347,0323,0336,0333,0347,0332,0332,0335,0335,0332,0337,0362,0345,0363,0320,0336,0333,0347,0334,0335,0335,0335,0333,0333,0336,0336,0347,0337,0337,0332,0323,0336,0332,0332,0336,0347,0337,0337,0333,0337,0321,0341,",
        "0225:0313,0304,0320,0350,0310,0335,0337,0362,0203,0334,0334,0334,0336,0203,0334,0334,0203,0363,0334,0334,0324,0362,0203,0334,0337,0203,0334,0334,0334,0336,0203,0334,0337,0203,0363,0335,0336,0331,0335,0335,0335,0320,0337,0362,0203,0335,0335,0335,0336,0203,0335,0335,0203,0363,0331,0335,0335,0304,0313,",
        "0226:0225,0225,0225,",
        "0227:0304,0313,0362,0203,0335,0350,0335,0310,0336,0203,0335,0335,0203,0363,0335,0335,0335,0337,0304,0313,0333,",
        "0230:0336,0336,0224,0330,0332,0332,0336,0330,0337,0225,0225,0331,0331,0331,0331,0332,0332,0332,0332,0225,0225,0330,0332,0332,0330,0332,0332,0227,0333,0333,0333,0336,0332,0337,0227,0331,0331,0336,0331,0337,0321,0362,0203,0203,0203,0203,0203,0203,0334,0203,0203,0203,0203,0203,0334,0203,0203,0203,0203,0203,0203,0334,0203,0203,0203,0203,0203,0354,",
        "0231:0221,0336,0336,0333,0337,0337,0221,",
        "0232:0221,0336,0333,0337,0335,0335,0331,0336,0336,0333,0330,0337,0337,0221,0335,0336,0335,0331,0337,0336,0331,0336,0330,0332,0332,0337,0337,0336,0336,0333,0337,0337,",
        "0233:0335,0335,0331,0336,0336,0330,0337,0337,0221,0335,0335,0331,0336,0330,0336,0331,0333,0337,0337,0221,0336,0336,0332,0337,0337,",
        "0234:0336,0336,0336,0336,0331,0337,0337,0330,0337,0333,0337,0231,0333,0331,0335,0335,0336,0333,0336,0332,0332,0331,0331,0333,0331,0337,0337,0231,0336,0336,0330,0330,0330,0337,0337,0335,0335,0330,0232,0331,0331,0332,0332,0336,0336,0330,0330,0330,0333,0333,0330,0333,0333,0333,0337,0337,0233,0336,0333,0321,0336,0331,0333,0333,0333,0333,0336,0336,0330,0337,0337,0337,0337,0337,0200,0336,0330,0334,0337,0342,0335,0336,0332,0342,0335,0335,0342,0335,0335,0333,0332,0332,0320,",
        "0235:0330,0332,0234,0331,0336,0331,0332,0332,0225,0225,0225,0225,0330,0330,0332,0336,0336,0332,0337,0337,0337,0227,0332,0332,0332,0332,0336,0336,0337,0337,0227,0331,0321,0332,0332,0336,0333,0336,0333,0336,0332,0337,0337,0337,0362,0203,0203,0336,0203,0336,0203,0335,0337,0337,0203,0203,0203,0203,0335,0203,0203,0336,0203,0336,0203,0335,0337,0337,0203,0203,0203,0203,0354,",
        "0236:0335,0331,0337,0321,0305,0362,0203,0335,0335,0203,0335,0335,0203,0335,0335,0203,0335,0335,0203,0354,0335,0350,0335,0311,0336,0362,0203,0335,0335,0203,0335,0335,0203,0335,0335,0203,0335,0335,0203,0354,0335,0335,0335,0337,0313,0336,0330,0304,0334,0320,",
        "0237:0330,0306,0335,0335,0321,0362,0203,0335,0203,0335,0203,0335,0203,0335,0203,0335,0203,0335,0354,0330,0335,0335,0350,0335,0312,0337,0362,0203,0334,0334,0334,0334,0203,0334,0334,0334,0334,0203,0354,0334,0336,0331,0334,0337,0362,0203,0334,0334,0334,0334,0203,0334,0334,0334,0334,0203,0354,0334,0336,0331,0334,0334,0330,0304,0313,0320,",
        "0240:0331,0321,0334,0336,0362,0203,0335,0337,0203,0203,0334,0336,0203,0335,0350,0310,0335,0337,0203,0203,0335,0335,0203,0203,0335,0335,0335,0336,0203,0313,0304,0334,0203,0203,0203,0203,0335,0203,0354,0335,0337,0330,0320,",
        "0241:0306,0362,0203,0335,0335,0203,0335,0335,0203,0363,0335,0335,0304,",
        "0242:0241,0333,0336,0333,0337,0241,0336,0333,0337,0333,0241,0333,0336,0333,0337,",
        "0243:0313,0304,0320,0350,0310,0335,0337,0362,0203,0335,0336,0203,0335,0335,0335,0337,0203,0335,0336,0203,0363,0335,0335,0324,0362,0203,0335,0335,0203,0335,0335,0335,0337,0203,0363,0335,0336,0331,0335,0335,0335,0337,0362,0203,0335,0335,0335,0336,0203,0335,0335,0203,0363,0320,0331,0335,0335,0304,0313,",
        "0244:0243,0243,0243,0243,",
        "0245:0321,0337,0201,0320,0336,0334,0336,0336,0306,0336,0362,0203,0335,0335,0337,0203,0335,0335,0203,0335,0335,0336,0203,0363,0304,0335,0337,0337,0337,0337,0331,0336,",
        "0246:0320,0335,0306,0350,0334,0330,0321,0337,0366,0336,0331,0335,0335,0330,0337,0336,0336,0336,0336,0336,0330,0337,0337,0337,0337,0337,0367,0336,0336,0336,0336,0336,0331,0335,0337,0320,0337,0362,0203,0334,0334,0334,0334,0203,0334,0334,0334,0334,0203,0363,0335,0337,0337,0330,0335,0335,0304,",
        "0247:0336,0336,0336,0347,0337,0337,0337,",
        "0250:0335,0337,0331,0337,0223,",
        "01220:0333,0200,0336,0332,0330,0220,0331,",
        "01221:0333,0200,0336,0332,0336,0330,0337,0220,0221,0333,0331,0331,0336,0330,0337,0337,0336,0330,0337,",
        "01222:0333,0200,0336,0332,0337,0222,0336,0333,0337,0331,0330,0335,0335,0331,0336,0333,0330,0335,0335,0331,0333,0337,",
        "01223:0333,0200,0336,0332,0337,0223,0336,0333,0337,0331,",
        "01224:0333,0200,0336,0330,0332,0224,0333,0331,0337,0320,",
        "01225:0333,0200,0336,0332,0336,0332,0332,0337,0225,0336,0337,0337,",
        "01226:0333,0200,0336,0330,0332,0332,0336,0330,0336,0226,0330,0333,0333,0330,0337,0337,0337,0331,",
        "01227:0333,0200,0336,0330,0332,0210,0227,0211,0331,0333,0337,0336,0332,0337,0336,0336,0336,0336,0333,0337,0337,0337,0337,",
        "01230:0333,0200,0336,0330,0332,0230,0336,0336,0333,0320,0336,0331,0331,0333,0333,0331,0333,0331,0333,0331,0333,0331,0333,0331,0331,0337,0337,0337,0337,0330,0336,0336,0330,0334,0337,0337,0337,0337,",
        "01231:0333,0200,0332,0336,0330,0333,0231,0333,0331,0337,0336,0336,0336,0332,0337,0337,0337,",
        "01232:0333,0200,0336,0332,0330,0332,0232,0333,0331,0333,0337,",
        "01233:0333,0200,0336,0332,0337,0336,0332,0336,0336,0333,0330,0337,0337,0210,0210,0233,0211,0211,0313,0336,0336,0332,0332,0333,0331,0337,0337,0337,0333,",
        "01234:0333,0200,0336,0330,0332,0332,0234,0337,0333,0336,0331,0337,",
        "01235:0333,0200,0336,0332,0336,0330,0332,0235,0333,0333,0333,0336,0336,0331,0331,0331,0331,0337,0337,0337,0337,",
        "01236:0333,0200,0336,0330,0330,0332,0336,0331,0337,0236,0333,0331,0331,0336,0330,0337,0337,",
        "01237:0333,0200,0336,0330,0332,0237,0333,0331,0337,",
        "01240:0333,0200,0336,0336,0332,0332,0240,0333,0333,0337,0337,",
        "01241:0333,0200,0336,0332,0241,0333,0337,",
        "01242:0333,0200,0336,0332,0332,0336,0330,0330,0242,0336,0331,0331,0331,0331,0332,0337,0337,0337,",
        "01243:0333,0200,0336,0332,0332,0243,0337,",
        "01244:0333,0200,0332,0336,0330,0336,0336,0243,0243,0243,0243,0331,0331,0331,0331,0337,0337,0337,",
        "01245:0333,0200,0336,0332,0336,0331,0337,0245,0333,0336,0330,0337,0337,",
        "01246:0333,0200,0330,0332,0336,0331,0336,0332,0337,0246,0333,0333,0336,0333,0331,0331,0337,0337,",
        "01247:0333,0200,0336,0330,0332,0337,0247,0336,0333,0331,0337,"
    ]
}
</json>
-->
    <line x1="141" y1="106" x2="141" y2="63" style="stroke:black;stroke-width:6" />
	<path d = "M141 63 L130 63 L141 45 L152 63 L141 63 Z" stroke = "black" stroke-width = "1" fill = "black" />    <line x1="163" y1="106" x2="163" y2="63" style="stroke:black;stroke-width:6" />
	<path d = "M163 63 L152 63 L162 45 L173 63 L163 63 Z" stroke = "black" stroke-width = "1" fill = "black" />    <line x1="227" y1="128" x2="227" y2="171" style="stroke:black;stroke-width:6" />
	<path d = "M227 171 L238 171 L227 189 L216 171 L227 171 Z" stroke = "black" stroke-width = "1" fill = "black" />    <line x1="205" y1="128" x2="206" y2="171" style="stroke:black;stroke-width:6" />
	<path d = "M206 171 L216 171 L206 189 L195 171 L206 171 Z" stroke = "black" stroke-width = "1" fill = "black" />    <line x1="205" y1="106" x2="205" y2="63" style="stroke:black;stroke-width:6" />
	<path d = "M205 63 L195 63 L205 45 L216 63 L205 63 Z" stroke = "black" stroke-width = "1" fill = "black" />    <line x1="227" y1="42" x2="227" y2="85" style="stroke:black;stroke-width:6" />
	<path d = "M227 85 L238 85 L227 103 L216 85 L227 85 Z" stroke = "black" stroke-width = "1" fill = "black" />    <line x1="141" y1="128" x2="141" y2="171" style="stroke:black;stroke-width:6" />
	<path d = "M141 171 L152 171 L141 189 L130 171 L141 171 Z" stroke = "black" stroke-width = "1" fill = "black" />    <line x1="163" y1="192" x2="163" y2="149" style="stroke:black;stroke-width:6" />
	<path d = "M163 149 L152 149 L163 131 L173 149 L163 149 Z" stroke = "black" stroke-width = "1" fill = "black" />	<path d = "M270 208 L270 36 L98 37 L98 209 L270 208 Z" stroke = "black" stroke-width = "6" fill = "none" />    <line x1="270" y1="122" x2="98" y2="123" style="stroke:black;stroke-width:6" />
    <line x1="184" y1="123" x2="184" y2="37" style="stroke:black;stroke-width:6" />
    <line x1="184" y1="123" x2="184" y2="209" style="stroke:black;stroke-width:6" />
	<path d = "M12 252 L55 209 L12 209 L12 252 Z" stroke = "black" stroke-width = "1" fill = "black" />	<path d = "M12 252 L55 252 L98 209 L55 209 L12 252 Z" stroke = "yellow" stroke-width = "1" fill = "yellow" />	<path d = "M55 252 L98 209 L98 252 L55 252 Z" stroke = "black" stroke-width = "1" fill = "black" />	<path d = "M98 252 L141 208 L98 209 L98 252 Z" stroke = "black" stroke-width = "1" fill = "black" />	<path d = "M98 252 L141 252 L184 209 L141 208 L98 251 Z" stroke = "yellow" stroke-width = "1" fill = "yellow" />	<path d = "M141 251 L184 208 L184 251 L141 252 Z" stroke = "black" stroke-width = "1" fill = "black" />	<path d = "M184 251 L227 208 L184 208 L184 251 Z" stroke = "black" stroke-width = "1" fill = "black" />	<path d = "M184 251 L227 251 L270 208 L227 208 L184 251 Z" stroke = "yellow" stroke-width = "1" fill = "yellow" />	<path d = "M227 251 L270 208 L270 251 L227 251 Z" stroke = "black" stroke-width = "1" fill = "black" />	<path d = "M270 251 L313 208 L270 208 L270 251 Z" stroke = "black" stroke-width = "1" fill = "black" />	<path d = "M270 251 L313 251 L356 208 L313 208 L270 251 Z" stroke = "yellow" stroke-width = "1" fill = "yellow" />	<path d = "M313 251 L356 208 L356 251 L313 251 Z" stroke = "black" stroke-width = "1" fill = "black" />	<path d = "M302 165 L302 79 L345 122 L302 165 Z" stroke = "black" stroke-width = "1" fill = "black" />	<path d = "M44 166 L44 80 L87 123 L44 166 Z" stroke = "black" stroke-width = "1" fill = "black" />	<path d = "M12 252 L12 166 L12 80 L12 37 L12 15 L98 15 L184 15 L270 15 L356 15 L356 101 L356 187 L356 230 L356 251 L270 251 L184 251 L98 252 L12 252 Z" stroke = "black" stroke-width = "6" fill = "none" /></svg>